<svg xmlns="http://www.w3.org/2000/svg" aria-hidden="true" overflow="hidden" style="position:absolute;width:0;height:0">
  <defs>
    <symbol id="window-close" viewBox="0 0 32 32">
      <path d="m26.667 7.303-1.97-1.97-7.808 7.808-7.808-7.808-1.97 1.97 7.808 7.808-7.808 7.808 1.97 1.97 7.808-7.808 7.808 7.808 1.97-1.97-7.808-7.808 7.808-7.808z"/>
    </symbol>
    <symbol id="envelope" viewBox="0 0 43 32">
      <path d="M38.657.004H4A4.004 4.004 0 0 0 .001 4.003v23.993A4.004 4.004 0 0 0 4 31.995h34.657a4.004 4.004 0 0 0 3.999-3.999V4.003A4.004 4.004 0 0 0 38.657.004zm0 2.666c.181 0 .353.038.511.103L21.329 18.235 3.489 2.773A1.32 1.32 0 0 1 4 2.67h34.657zm0 26.66H4a1.334 1.334 0 0 1-1.333-1.333V5.59l17.788 15.416a1.331 1.331 0 0 0 1.746 0L39.989 5.59v22.407c0 .736-.597 1.333-1.333 1.333z"/>
    </symbol>
    <symbol id="smartphone" viewBox="0 0 20 32">
      <path d="M17 0H3C1.346 0 0 1.346 0 3v26c0 1.654 1.346 3 3 3h14c1.654 0 3-1.346 3-3V3c0-1.654-1.346-3-3-3zM3 2h14a1 1 0 0 1 1 1v21H2V3a1 1 0 0 1 1-1zm14 28H3a1 1 0 0 1-1-1v-3h16v3a1 1 0 0 1-1 1z"/>
      <path d="M4.707 27.478c.391.365.391.956 0 1.321s-1.024.365-1.414 0c-.391-.365-.391-.956 0-1.321s1.024-.365 1.414 0z"/>
    </symbol>
    <symbol id="antenna" viewBox="0 0 32 32">
      <path fill="var(--color1, #212121)" d="m30.773 22.098-8.443-8.505.937-4.615c.242.094.499.144.758.146h.006a2.159 2.159 0 1 0-2.008-1.435l-4.96.605L8.973.161a.534.534 0 0 0-.377-.16.532.532 0 0 0-.373.155L6.71 1.66a.534.534 0 0 0 0 .754l.814.826a14.942 14.942 0 0 0 2.519 17.662.513.513 0 0 0 .146.098c-.034.18-.051.364-.052.547v6.186h-6.4A2.67 2.67 0 0 0 1.07 30.4v1.067c0 .295.239.533.533.533h24.533a.533.533 0 0 0 .533-.533V30.4a2.67 2.67 0 0 0-2.667-2.667h-6.4v-2.742c1.003.21 2.024.317 3.048.32a14.854 14.854 0 0 0 7.04-1.783l.818.823a.534.534 0 0 0 .377.16.532.532 0 0 0 .373-.155l1.513-1.504a.534.534 0 0 0 0-.754zM23.28 6.234a1.066 1.066 0 1 1 .752 1.822h-.003a1.067 1.067 0 0 1-.747-1.823h-.002zm-1.256 3.504-.598 2.945-1.175-1.182 1.774-1.763zm-.606-.902-1.92 1.909-1.485-1.493 3.405-.415zM24.004 28.8a1.6 1.6 0 0 1 1.6 1.6v.533H2.138V30.4a1.6 1.6 0 0 1 1.6-1.6h20.266zm-7.467-2.133v1.067h-5.333v-1.067h5.333zM11.204 25.6v-4.053c0-1.294 1.196-2.347 2.667-2.347s2.667 1.053 2.667 2.347V25.6h-5.333zm6.4-1.696v-2.357c0-1.882-1.675-3.413-3.733-3.413a3.8 3.8 0 0 0-3.281 1.786A13.87 13.87 0 0 1 8.311 4.033l18.601 18.708a13.818 13.818 0 0 1-9.309 1.163zm11.289-.684L7.837 2.04l.755-.752 7.935 7.98c.004 0 .006.007.01.01l13.114 13.191-.757.752z"/>
      <path fill="var(--color2, #2196f3)" d="M13.876 20.267h-.005a1.6 1.6 0 1 0-.004 3.2h.005a1.6 1.6 0 1 0 .004-3.2zm.373 1.978a.534.534 0 0 1-.752-.756.534.534 0 0 1 .373-.155.532.532 0 0 1 .373.911h.005z"/>
    </symbol>
    <symbol id="clock" viewBox="0 0 32 32">
      <path fill="var(--color1, #212121)" d="M31.304 15.302C31.302 6.85 24.449-.001 15.997.001S.694 6.856.696 15.308a15.304 15.304 0 0 0 10.649 14.576.662.662 0 0 0 .529-.065.637.637 0 0 0 .283-.356l3.865-12.25a1.912 1.912 0 1 0-.84-3.635l-5.106-5.107a.637.637 0 0 0-.902.902l5.103 5.109a1.876 1.876 0 0 0 .536 2.309l-3.682 11.673C3.853 25.783.127 17.71 2.808 10.433S13.562-.571 20.839 2.11s11.004 10.754 8.323 18.031a14.042 14.042 0 0 1-7.462 7.973l-.398-1.874a.638.638 0 0 0-1.048-.344l-3.837 3.425a.637.637 0 0 0 .231 1.084l4.898 1.563a.638.638 0 0 0 .819-.74l-.391-1.839A15.255 15.255 0 0 0 31.303 15.3zM16 14.664a.638.638 0 1 1 0 1.277.638.638 0 0 1 0-1.277zm2.101 14.863 2.184-1.948.603 2.84-2.787-.892z"/>
      <path fill="var(--color2, #2196f3)" d="M15.363 3.186v1.275a.638.638 0 1 0 1.276 0V3.186a.638.638 0 0 0-1.276 0zM3.884 14.664a.638.638 0 0 0 0 1.276h1.275a.638.638 0 1 0 0-1.276H3.884zm24.232 1.275a.638.638 0 1 0 0-1.276h-1.275a.638.638 0 0 0 0 1.276h1.275z"/>
    </symbol>
    <symbol id="diagram" viewBox="0 0 32 32">
      <path fill="var(--color2, #2196f3)" d="M14.926 14.945h1.066v4.797h-1.066v-4.797zm4.264 2.132h1.066v2.665H19.19v-2.665zm-8.529 1.599h1.066v1.066h-1.066v-1.066zm-3.198-.533h1.066v1.599H7.463v-1.599z"/>
      <path fill="var(--color1, #212121)" d="M1.6 28.271h25.585a1.6 1.6 0 0 0 1.599-1.599V24.54a1.6 1.6 0 0 0-1.599-1.599h-.533V9.649l3.028-2.868a1.608 1.608 0 1 0-.746-.763l-2.281 2.163v-1.23a1.6 1.6 0 0 0-1.599-1.599H3.733a1.6 1.6 0 0 0-1.599 1.599v15.991h-.533a1.6 1.6 0 0 0-1.599 1.599v2.132a1.6 1.6 0 0 0 1.599 1.599zM30.383 4.818a.533.533 0 1 1 0 1.067.533.533 0 0 1 0-1.067zM3.199 6.95c0-.294.239-.533.533-.533h21.321c.294 0 .533.239.533.533v2.239l-1.066 1.013V8.017a.533.533 0 0 0-.533-.533H4.798a.533.533 0 0 0-.533.533v13.326c0 .294.239.533.533.533h19.189a.533.533 0 0 0 .533-.533v-9.674l1.066-1.01v12.283H3.199V6.951zm4.797 6.929a1.598 1.598 0 1 0 1.107 2.748l1.853.93a.532.532 0 0 0 .636-.123l3.939-4.431 3.872 2.901a.533.533 0 0 0 .686-.039l3.365-3.187v8.131H5.331V8.549h18.123v2.66l-3.771 3.571-3.904-2.927a.533.533 0 0 0-.718.072l-3.993 4.492-1.493-.746c.011-.064.018-.129.02-.193a1.6 1.6 0 0 0-1.599-1.599zm.533 1.599a.533.533 0 1 1-1.067 0 .533.533 0 0 1 1.067 0zm3.198 8.529h5.33v.533a.533.533 0 0 1-.533.533H12.26a.533.533 0 0 1-.533-.533v-.533zm-10.66.533c0-.294.239-.533.533-.533h9.061v.533a1.6 1.6 0 0 0 1.599 1.599h4.264a1.6 1.6 0 0 0 1.599-1.599v-.533h9.061c.294 0 .533.239.533.533v2.132a.533.533 0 0 1-.533.533H1.599a.533.533 0 0 1-.533-.533V24.54z"/>
    </symbol>
    <symbol id="astronaut" viewBox="0 0 32 32">
      <path fill="var(--color2, #2196f3)" d="M31.973 4.525a.534.534 0 0 0-.43-.363l-1.91-.278-.855-1.731c-.179-.365-.777-.365-.956 0l-.855 1.731-1.91.278a.535.535 0 0 0-.296.91l1.383 1.348-.326 1.903c-.034.2.048.402.212.522a.53.53 0 0 0 .562.04l1.709-.899 1.709.899a.536.536 0 0 0 .775-.563l-.326-1.903 1.383-1.348a.536.536 0 0 0 .135-.547zM29.51 5.851a.534.534 0 0 0-.153.472l.191 1.114-1-.526a.533.533 0 0 0-.498 0l-1.001.526.191-1.114a.534.534 0 0 0-.153-.472l-.81-.789 1.119-.163a.532.532 0 0 0 .402-.292l.5-1.013.5 1.013a.535.535 0 0 0 .402.292l1.119.163-.809.789zm-3.377 14.671h-1.067v1.067h1.067v-1.067zm0 2.133h-1.067v1.067h1.067v-1.067z"/>
      <path fill="var(--color2, #2196f3)" d="M27.199 21.589h-1.067v1.067h1.067v-1.067zm-2.133 0h-1.067v1.067h1.067v-1.067zm-2.667 4.8h-1.067v1.067h1.067v-1.067zm0 2.133h-1.067v1.067h1.067v-1.067zm1.067-1.067h-1.067v1.067h1.067v-1.067z"/>
      <path fill="var(--color2, #2196f3)" d="M21.333 27.455h-1.067v1.067h1.067v-1.067zM16 24.255h-1.067v1.067H16v-1.067zm0 2.134h-1.067v1.067H16v-1.067zm1.066-1.067h-1.067v1.067h1.067v-1.067zm-2.133 0h-1.067v1.067h1.067v-1.067zm-9.067-19.2H4.799v1.067h1.067V6.122zm0 2.134H4.799v1.067h1.067V8.256zm1.067-1.067H5.866v1.067h1.067V7.189zm-2.133 0H3.733v1.067H4.8V7.189z"/>
      <path fill="var(--color1, #212121)" d="M24.714 14.16a1.775 1.775 0 0 0-1.188-.705 1.778 1.778 0 0 0-1.34.352l-1.252.96-1.898 1.417-1.358-.541c2.421-1.086 4.113-3.508 4.113-6.32 0-3.823-3.123-6.933-6.961-6.933S7.869 5.5 7.869 9.323a6.86 6.86 0 0 0 1.12 3.758l-2.764-.024H6.22c-.009 0-.015.004-.023.005a.515.515 0 0 0-.155.031l-.038.013c-.006.003-.013.003-.019.006l-3.233 1.596-.001.001-1.893.911a.397.397 0 0 0-.063.035 1.779 1.779 0 0 0-.598 2.295c.22.429.595.745 1.056.889a1.776 1.776 0 0 0 1.378-.128l1.388-.738 2.264-1.169 1.357-.008-5.441 5.415-.002.001-1.339 1.333c-.316.315-.49.732-.49 1.178s.174.863.49 1.179c.325.323.752.485 1.179.485s.854-.162 1.18-.485l1.314-1.309 1.741-1.3.901.897-1.762 1.754-.002.001-1.339 1.333c-.316.315-.49.732-.49 1.178s.174.863.49 1.179c.325.323.753.485 1.18.485s.855-.162 1.18-.485l3.481-3.466.001-.002 1.01-1-.004-.004c.006-.006.015-.009.022-.015l5.166-5.658 3.471.494a.52.52 0 0 0 .262-.033c.018-.006.033-.015.05-.023.019-.01.039-.015.058-.027l3.213-2.133c.012-.008.018-.021.029-.029.013-.01.029-.014.041-.026l1.271-1.191c.662-.62.753-1.635.212-2.362zM2.131 17.77a.714.714 0 0 1-.558.052.717.717 0 0 1-.213-1.26l1.314-.632.449 1.312-.992.527zm3.497-1.828-1.548.8-.439-1.283 2.027-1.001-.04 1.484zm15.098-6.62a5.79 5.79 0 0 1-.599 2.559l-4.181-1.899a1.863 1.863 0 0 0-.788-1.388l1.464-4.86c2.378.756 4.104 2.974 4.104 5.588zm-11.788 0c0-3.235 2.644-5.867 5.894-5.867.253 0 .5.021.745.052L14.145 8.26c-.019-.001-.037-.006-.057-.006-1.033 0-1.873.837-1.873 1.867s.84 1.867 1.873 1.867c.694 0 1.294-.383 1.618-.945l3.862 1.755a5.894 5.894 0 0 1-4.736 2.39c-3.25 0-5.894-2.632-5.894-5.867zm5.956.8c0 .441-.362.8-.806.8s-.806-.359-.806-.8c0-.441.362-.8.806-.8s.806.359.806.8zM2.465 25.146a.608.608 0 0 1-.854.001.592.592 0 0 1 0-.844l.962-.958.851.847-.959.955zm3.214 3.733a.608.608 0 0 1-.855.001.592.592 0 0 1 0-.844l.963-.959.852.847-.959.955zM9.16 25.41l-.002.001-1.765 1.76-.852-.847 1.763-1.755.002-.001c.04-.04.065-.088.09-.135.007-.014.02-.026.026-.04.017-.041.019-.085.026-.129.003-.025.014-.047.014-.073 0-.036-.013-.07-.02-.106-.006-.032-.006-.065-.019-.095a.55.55 0 0 0-.091-.138c-.01-.012-.014-.027-.025-.038h-.001l-.001-.002-1.607-1.6c-.017-.017-.039-.024-.058-.038a.507.507 0 0 0-.087-.058.515.515 0 0 0-.093-.033.507.507 0 0 0-.103-.02.5.5 0 0 0-.095.005.53.53 0 0 0-.104.02.477.477 0 0 0-.094.045c-.02.011-.042.015-.061.029L4.23 23.486l-.901-.897 2.399-2.386 4.36 4.288-.928.919zm6.819-7.016c-.015-.002-.03.004-.045.003a.556.556 0 0 0-.3.075.492.492 0 0 0-.083.061c-.013.011-.028.017-.04.029l-4.698 5.145-4.328-4.256 2.833-2.818a.534.534 0 0 0-.379-.911v-.001l-2.219.013.028-1.607 3.104.027a6.947 6.947 0 0 0 4.981 2.101c.437 0 .864-.045 1.279-.123.04.032.079.065.13.085l2.41.96.331 1.644-3.003-.427zm4.041.178-.313-1.558 1.446-1.08.947 1.256-2.08 1.381zm3.753-2.831-.838.785-.931-1.236.831-.637a.735.735 0 0 1 .543-.143.718.718 0 0 1 .48.284.713.713 0 0 1-.085.947z"/>
      <path fill="var(--color1, #212121)" d="m13.602 18.544-2.143-2.133a.534.534 0 0 0-.753 0l-2.142 2.133a.537.537 0 0 0 0 .756l2.142 2.133a.536.536 0 0 0 .753 0l2.143-2.133a.535.535 0 0 0 0-.756zm-2.519 1.759-1.387-1.381 1.387-1.381 1.387 1.381-1.387 1.381zm6.081-15.232-.258 1.036c.071.018 1.738.452 1.738 2.149h1.067c0-2.017-1.666-2.965-2.547-3.184zm2.546 4.251h-1.067v1.067h1.067V9.322z"/>
    </symbol>
    <symbol id="instagram" viewBox="0 0 32 32">
      <path d="M31.915 9.409c-.075-1.7-.35-2.869-.744-3.882a7.806 7.806 0 0 0-1.851-2.838A7.867 7.867 0 0 0 26.488.845C25.469.451 24.306.176 22.606.101c-1.713-.081-2.257-.1-6.601-.1S11.117.02 9.41.095c-1.7.075-2.869.35-3.882.744a7.803 7.803 0 0 0-2.838 1.85A7.867 7.867 0 0 0 .846 5.521C.452 6.54.177 7.703.102 9.403c-.081 1.713-.1 2.257-.1 6.601s.019 4.888.094 6.595c.075 1.7.35 2.869.744 3.882a7.895 7.895 0 0 0 1.85 2.838 7.867 7.867 0 0 0 2.832 1.844c1.019.394 2.182.669 3.882.744 1.706.075 2.25.094 6.595.094s4.888-.019 6.595-.094c1.7-.075 2.869-.35 3.882-.744a8.181 8.181 0 0 0 4.682-4.682c.394-1.019.669-2.182.744-3.882.075-1.707.094-2.25.094-6.595s-.006-4.888-.081-6.595zm-2.882 13.064c-.069 1.563-.331 2.407-.55 2.969a5.31 5.31 0 0 1-3.038 3.038c-.563.219-1.413.481-2.969.55-1.688.075-2.194.094-6.463.094s-4.782-.019-6.464-.094c-1.563-.069-2.407-.331-2.969-.55a4.926 4.926 0 0 1-1.838-1.194 4.974 4.974 0 0 1-1.194-1.838c-.219-.563-.481-1.413-.55-2.969-.075-1.688-.094-2.194-.094-6.464s.019-4.782.094-6.463c.069-1.563.331-2.407.55-2.969a4.868 4.868 0 0 1 1.2-1.838 4.974 4.974 0 0 1 1.838-1.194c.563-.219 1.413-.481 2.969-.55 1.688-.075 2.194-.094 6.463-.094 4.276 0 4.782.019 6.464.094 1.563.069 2.407.331 2.969.55a4.914 4.914 0 0 1 1.838 1.194 4.974 4.974 0 0 1 1.194 1.838c.219.563.481 1.413.55 2.969.075 1.688.094 2.194.094 6.463s-.019 4.77-.094 6.457z"/>
      <path d="M16.006 7.783c-4.538 0-8.22 3.682-8.22 8.22s3.682 8.22 8.22 8.22 8.22-3.682 8.22-8.22-3.682-8.22-8.22-8.22zm0 13.552a5.333 5.333 0 0 1 0-10.664 5.333 5.333 0 0 1 0 10.664zM26.47 7.458a1.919 1.919 0 1 1-3.838 0 1.919 1.919 0 0 1 3.838 0z"/>
    </symbol>
    <symbol id="twitter" viewBox="0 0 32 32">
      <path d="M32 6.078c-1.19.522-2.458.868-3.78 1.036a6.523 6.523 0 0 0 2.886-3.626 13.11 13.11 0 0 1-4.16 1.588A6.574 6.574 0 0 0 22.154 3c-3.632 0-6.556 2.948-6.556 6.562 0 .52.044 1.02.152 1.496-5.454-.266-10.28-2.88-13.522-6.862a6.605 6.605 0 0 0-.898 3.316 6.57 6.57 0 0 0 2.914 5.452 6.479 6.479 0 0 1-2.964-.808v.072c0 3.188 2.274 5.836 5.256 6.446a6.548 6.548 0 0 1-1.72.216 5.8 5.8 0 0 1-1.242-.112c.85 2.598 3.262 4.508 6.13 4.57a13.182 13.182 0 0 1-8.134 2.798c-.538 0-1.054-.024-1.57-.09A18.469 18.469 0 0 0 10.064 29c12.072 0 18.672-10 18.672-18.668 0-.29-.01-.57-.024-.848A13.087 13.087 0 0 0 32 6.078z"/>
    </symbol>
    <symbol id="facebook" viewBox="0 0 32 32">
      <path d="M21.079 5.314H24V.226c-.504-.069-2.237-.225-4.256-.225-4.212 0-7.097 2.649-7.097 7.518V12H7.999v5.688h4.648V32h5.699V17.69h4.46l.708-5.688h-5.169V8.083c.001-1.644.444-2.769 2.735-2.769z"/>
    </symbol>
    <symbol id="linkedin" viewBox="0 0 32 32">
      <path d="M31.992 32v-.001H32V20.263c0-5.741-1.236-10.164-7.948-10.164-3.227 0-5.392 1.771-6.276 3.449h-.093v-2.913h-6.364v21.364h6.627V21.42c0-2.785.528-5.479 3.977-5.479 3.399 0 3.449 3.179 3.449 5.657v10.401h6.62zM.528 10.636h6.635V32H.528V10.636zM3.843 0C1.722 0 0 1.721 0 3.843s1.721 3.879 3.843 3.879c2.121 0 3.843-1.757 3.843-3.879A3.846 3.846 0 0 0 3.843 0z"/>
    </symbol>
    <symbol id="yaco" viewBox="0 0 57 32">
      <path d="m18.331.001 4.801 4.545-8.912-.005v22.053h23.295v-8.432l4.796 4.54V0H18.33zm18.974 17.628L23.691 4.741h13.614v12.888zm-4.227 5.739H17.907V8.536h1.072v13.828h14.099v1.004zM21.489 29.53h.468l-.816 1.539v.897h-.425v-.897l-.818-1.539h.47l.56 1.154.56-1.154zm.704 2.436.197-.567h.943l.199.567h.442l-.922-2.436h-.38l-.92 2.436h.44zm.669-1.919.353 1.01h-.706l.353-1.01zm2.232.952a.557.557 0 0 0-.092.309c0 .205.072.372.216.5.145.127.338.191.579.191s.448-.065.622-.196l.137.162h.472l-.358-.423c.14-.192.211-.438.211-.738h-.353a.973.973 0 0 1-.102.447l-.47-.555.166-.12a.93.93 0 0 0 .253-.254.542.542 0 0 0 .077-.281.5.5 0 0 0-.171-.386.613.613 0 0 0-.435-.157.649.649 0 0 0-.468.167.594.594 0 0 0-.174.452.6.6 0 0 0 .055.243c.038.084.104.185.199.304-.181.129-.302.241-.363.336zm1.099.539a.623.623 0 0 1-.385.137c-.122 0-.219-.035-.291-.105s-.109-.162-.109-.274c0-.13.067-.246.201-.348l.052-.037.532.627zm-.437-1.079c-.115-.142-.172-.259-.172-.353 0-.081.023-.149.07-.202s.11-.08.189-.08c.074 0 .134.023.182.069a.214.214 0 0 1 .072.162.303.303 0 0 1-.104.236l-.052.042-.186.127zm3.964 1.323c-.167.145-.39.217-.667.217a.966.966 0 0 1-.514-.137c-.147-.093-.261-.224-.341-.393s-.122-.366-.125-.59v-.227c0-.23.041-.432.122-.607s.198-.31.35-.405a.98.98 0 0 1 .529-.142c.269 0 .485.073.649.219s.259.352.286.619h-.422c-.02-.175-.071-.301-.154-.378-.081-.078-.201-.117-.36-.117a.495.495 0 0 0-.425.202c-.098.134-.148.331-.151.59v.216c0 .263.047.464.14.602a.472.472 0 0 0 .415.207c.166 0 .291-.037.375-.112s.137-.199.159-.373h.422c-.025.26-.12.463-.288.609zm2.488-.341c.083-.181.124-.39.124-.629v-.135a1.481 1.481 0 0 0-.127-.624.922.922 0 0 0-.356-.411c-.153-.096-.328-.144-.527-.144s-.375.049-.529.146a.947.947 0 0 0-.356.416 1.484 1.484 0 0 0-.125.629v.137c.001.233.043.439.127.617a.966.966 0 0 0 .358.413.983.983 0 0 0 .529.144c.2 0 .376-.048.529-.144a.941.941 0 0 0 .355-.415zm-.453-1.377c.103.144.154.351.154.621v.127c0 .274-.051.483-.152.626a.494.494 0 0 1-.432.214.506.506 0 0 1-.435-.219c-.104-.146-.156-.353-.156-.621v-.14c.002-.262.055-.464.157-.607a.501.501 0 0 1 .43-.216c.187 0 .332.072.433.216z"/>
    </symbol>
    <symbol id="tagline-here" viewBox="0 0 57 32">
      <path d="M26.49 1.806c.142 0 .294.013.446.026l.045.004c.734.052 1.463.162 2.179.329V.403a12.974 12.974 0 0 0-2.249-.358 18.11 18.11 0 0 0-.909-.044h-.263a18.335 18.335 0 0 0-4.514.582 18.3 18.3 0 0 0-4.79 1.948v17.474a19.484 19.484 0 0 1 4.566-1.779 19.948 19.948 0 0 1 3.833-.588h.051c.216-.011.433-.017.655-.019v-1.79a21.14 21.14 0 0 0-4.981.662 23.32 23.32 0 0 0-1.731.513l-.623.211V3.59l.266-.128a17.404 17.404 0 0 1 6.471-1.651.523.523 0 0 1 .056 0c.247-.012.497-.019.741-.019h.28c.129.003.258.006.388.014h.084zm3.101 1.802c.391.03.795.044 1.205.044a19.338 19.338 0 0 0 4.746-.609c1.589-.4 3.123-.998 4.564-1.781v17.163a18.32 18.32 0 0 1-4.791 1.948 18.485 18.485 0 0 1-4.514.581 13.778 13.778 0 0 1-3.425-.404V3.276c.265.061.537.117.814.164.455.077.934.133 1.401.167zm8.734.133-.623.21c-.573.192-1.15.365-1.731.518a21.098 21.098 0 0 1-5.173.663c-.406 0-.78-.011-1.141-.034l-.497-.033v14.016l.427.038c.395.034.803.052 1.214.052a16.573 16.573 0 0 0 4.074-.527 17.071 17.071 0 0 0 3.183-1.144l.266-.128V3.743zM17.643 25.976a.903.903 0 0 0-.693-.28 1.034 1.034 0 0 0-.4.075.91.91 0 0 0-.512.518 1.023 1.023 0 0 0-.072.387v2.335c-.006.165.026.328.092.479.055.12.135.226.233.313a.815.815 0 0 0 .321.166c.113.032.231.048.349.049a.972.972 0 0 0 .892-.61.951.951 0 0 0 .075-.372v-.261h-.61v.208a.528.528 0 0 1-.036.208.359.359 0 0 1-.089.131.365.365 0 0 1-.128.067.425.425 0 0 1-.128.022.312.312 0 0 1-.286-.125.548.548 0 0 1-.081-.313v-2.177a.738.738 0 0 1 .075-.349.311.311 0 0 1 .299-.141.33.33 0 0 1 .272.131c.068.09.104.2.101.313v.202h.604v-.238a1.093 1.093 0 0 0-.279-.737zm3.626-.026a1.051 1.051 0 0 0-1.38 0 .961.961 0 0 0-.237.327 1.099 1.099 0 0 0-.089.452v2.239a1.08 1.08 0 0 0 .089.459c.055.12.136.227.237.313a.94.94 0 0 0 .322.197 1.028 1.028 0 0 0 .728 0c.121-.044.233-.111.33-.197a.948.948 0 0 0 .23-.313c.063-.144.093-.301.089-.459v-2.239a1.08 1.08 0 0 0-.089-.452 1.015 1.015 0 0 0-.23-.327zm-.285 3.018a.405.405 0 0 1-.121.324.445.445 0 0 1-.574 0 .397.397 0 0 1-.121-.324v-2.239a.405.405 0 0 1 .121-.324.445.445 0 0 1 .574 0 .397.397 0 0 1 .121.324v2.239zm5.046 1v-4.239h-.587l-.771 2.244h-.011l-.777-2.244h-.581v4.239h.606v-2.579h.011l.593 1.823h.302l.598-1.823h.011v2.579h.606zm3.441-3.942a.84.84 0 0 0-.343-.232 1.363 1.363 0 0 0-.439-.066h-.9v4.239h.604v-1.656h.311c.189.009.376-.031.545-.116a.882.882 0 0 0 .332-.324 1.02 1.02 0 0 0 .139-.369c.024-.16.035-.321.033-.482a2.421 2.421 0 0 0-.059-.606.898.898 0 0 0-.223-.39zm-.312 1.293a.547.547 0 0 1-.056.221.346.346 0 0 1-.156.149.619.619 0 0 1-.285.053h-.276v-1.441h.311a.578.578 0 0 1 .272.053.352.352 0 0 1 .142.156.62.62 0 0 1 .053.236v.282c0 .099.006.2 0 .291h-.006zm3.173-1.59h-.495l-.934 4.239h.604l.177-.911h.823l.177.911h.604l-.957-4.239zm-.557 2.751.297-1.537h.011l.296 1.537h-.604zm4.46-.197h-.011l-.912-2.554h-.581v4.239h.604v-2.549h.012l.923 2.549h.568v-4.239h-.604v2.554zm3.69-2.554-.486 1.685h-.012l-.486-1.685h-.64l.83 2.447v1.792h.604v-1.792l.83-2.447h-.64zm-23.966 5.436h.291v.817h.198v-.817h.29v-.167h-.778v.167zm2.447-.168-.381.984h.21l.081-.224h.392l.084.224h.215l-.391-.984h-.21zm-.031.595.134-.365.134.365h-.268zm2.45.027h.227v.127a.382.382 0 0 1-.234.083.244.244 0 0 1-.209-.093.411.411 0 0 1-.073-.257c0-.219.095-.329.283-.329.05-.005.099.008.14.037s.07.071.083.12l.195-.038c-.042-.192-.181-.289-.417-.289a.495.495 0 0 0-.344.127.494.494 0 0 0-.141.379.532.532 0 0 0 .126.369.477.477 0 0 0 .374.144.594.594 0 0 0 .417-.156v-.388h-.427v.166zm2.47-.622h-.199v.984h.69v-.167h-.49v-.817zm2.09 0h-.199v.984h.199v-.984zm2.042.658-.403-.657h-.193v.984h.185v-.643l.395.643h.198v-.984h-.182v.657zm1.846-.107h.49v-.167h-.49v-.216h.528v-.167h-.727v.984h.747v-.167h-.548v-.266zm4.477-.162h-.388v-.388h-.198v.984h.198v-.43h.388v.43h.198v-.984h-.198v.388zm1.857.162h.492v-.167h-.492v-.216h.529v-.167h-.727v.984h.746v-.167h-.548v-.266zm2.519 0c.171-.027.258-.117.258-.274a.236.236 0 0 0-.096-.219.553.553 0 0 0-.288-.058h-.417v.984h.198v-.412h.039a.261.261 0 0 1 .123.022.21.21 0 0 1 .07.072l.215.313h.237l-.12-.192a.685.685 0 0 0-.218-.236zm-.199-.136h-.146v-.247h.156a.526.526 0 0 1 .201.023.135.135 0 0 1 .033.046.133.133 0 0 1-.005.111.128.128 0 0 1-.037.043.547.547 0 0 1-.201.023zm2.098.136h.49v-.167h-.49v-.216h.529v-.167h-.728v.984h.747v-.167h-.548v-.266z"/>
    </symbol>
    <symbol id="company" viewBox="0 0 57 32">
      <path d="M16.608 31.394a.095.095 0 0 1 .066.026l.17.162a1.389 1.389 0 0 1-.477.307 1.838 1.838 0 0 1-.676.11 1.798 1.798 0 0 1-.636-.103 1.388 1.388 0 0 1-.479-.291 1.283 1.283 0 0 1-.309-.449 1.488 1.488 0 0 1-.108-.576 1.347 1.347 0 0 1 .445-1.027c.145-.127.318-.226.508-.293.209-.07.431-.105.655-.103.208-.004.415.027.608.094.168.063.322.151.455.26l-.142.173a.134.134 0 0 1-.036.031.094.094 0 0 1-.057.013.14.14 0 0 1-.061-.018l-.076-.046-.106-.059a1.169 1.169 0 0 0-.335-.103 1.418 1.418 0 0 0-.252-.018 1.355 1.355 0 0 0-.47.077 1.09 1.09 0 0 0-.369.217.988.988 0 0 0-.239.346c-.06.147-.089.301-.087.456a1.18 1.18 0 0 0 .087.464.983.983 0 0 0 .587.558c.138.05.287.075.436.074.086.001.173-.004.258-.015a1.029 1.029 0 0 0 .559-.237.127.127 0 0 1 .081-.029zm4.893-.814a1.41 1.41 0 0 1-.114.573c-.069.166-.178.318-.319.444s-.312.226-.501.292a2.07 2.07 0 0 1-1.288 0 1.47 1.47 0 0 1-.498-.293 1.302 1.302 0 0 1-.322-.449 1.49 1.49 0 0 1 0-1.147c.072-.167.182-.32.322-.451.142-.122.311-.218.498-.282.414-.14.874-.14 1.288 0 .188.066.358.166.5.293a1.328 1.328 0 0 1 .434 1.02zm-.445 0a1.214 1.214 0 0 0-.081-.46.943.943 0 0 0-.585-.561 1.484 1.484 0 0 0-.936 0 1.01 1.01 0 0 0-.358.217.94.94 0 0 0-.229.344c-.108.3-.108.621 0 .92a.94.94 0 0 0 .587.559c.302.098.634.098.936 0 .136-.048.259-.121.358-.215a.956.956 0 0 0 .227-.344c.057-.148.084-.304.081-.46zm3.784.482.044.103c.017-.037.032-.07.049-.103a.987.987 0 0 1 .055-.101l1.082-1.71c.021-.029.04-.048.061-.053a.267.267 0 0 1 .089-.009h.32v2.781h-.379v-2.132a.769.769 0 0 1 0-.096l-1.089 1.734c-.014.026-.036.048-.064.063s-.06.023-.093.023h-.061c-.033 0-.065-.008-.093-.023s-.05-.037-.063-.064l-1.121-1.745v2.232h-.366v-2.776h.32c.03-.002.06.002.089.009.026.011.047.03.059.053l1.106 1.712c.022.032.04.065.055.099zm4.074-.138v1.042h-.424v-2.777h.945c.178-.003.356.017.528.061.137.034.264.093.373.173a.712.712 0 0 1 .212.272c.05.113.074.234.072.355a.762.762 0 0 1-.307.633 1.077 1.077 0 0 1-.375.184 1.752 1.752 0 0 1-.511.064l-.513-.007zm0-.298h.513c.111.001.222-.013.328-.042a.707.707 0 0 0 .237-.12.531.531 0 0 0 .195-.418c.005-.077-.01-.154-.043-.226s-.084-.137-.148-.19a.909.909 0 0 0-.57-.149h-.513v1.145zm5.694 1.343h-.335a.156.156 0 0 1-.148-.09l-.288-.672H32.39l-.299.672a.158.158 0 0 1-.148.091h-.335l1.271-2.781h.441l1.288 2.781zm-2.097-1.032h1.195l-.504-1.132a1.773 1.773 0 0 1-.095-.261l-.049.145a1.317 1.317 0 0 1-.047.118l-.5 1.13zm3.928-1.736a.185.185 0 0 1 .064.05l1.854 2.097v-2.16h.379v2.781h-.212a.199.199 0 0 1-.087-.017.232.232 0 0 1-.068-.052l-1.852-2.095a.769.769 0 0 1 0 .096v2.067h-.379v-2.781h.225a.196.196 0 0 1 .076.013zm5.419 1.662v1.104h-.424v-1.104l-1.171-1.675h.379a.15.15 0 0 1 .091.024.243.243 0 0 1 .057.063l.733 1.081a1.43 1.43 0 0 1 .129.247l.055-.12c.021-.044.045-.086.072-.127l.722-1.088a.306.306 0 0 1 .055-.059.145.145 0 0 1 .091-.028h.383l-1.174 1.682zM24.63 24.521c.184.02.371.037.559.052 2.859-1.111 5.277-2.929 6.952-5.228s2.534-4.975 2.469-7.695l-3.15-2.737c.64 2.896.341 5.89-.865 8.647s-3.271 5.167-5.965 6.962z"/>
      <path d="m23.505 24.393.085.015c2.878-1.788 5.072-4.286 6.299-7.17s1.429-6.021.582-9.005l-4.487-3.898c1.815 3.204 2.545 6.791 2.107 10.342s-2.029 6.921-4.585 9.717zm15.217-9.53c-.762 2.989-2.614 5.684-5.279 7.686a16.704 16.704 0 0 1-2.508 1.564c2.171-.554 4.166-1.534 5.831-2.864s2.958-2.975 3.776-4.807l-1.82-1.579z"/>
      <path d="m38.008 14.423-2.591-2.251c-.05 2.567-.889 5.075-2.432 7.264s-3.732 3.979-6.341 5.184h.013c.581 0 1.162-.03 1.739-.09 2.438-.864 4.591-2.24 6.268-4.003s2.826-3.86 3.343-6.103zM23.88 2.691 20.789.002c-2.763.928-5.14 2.559-6.818 4.679s-2.581 4.632-2.59 7.206c.01 2.844 1.112 5.604 3.131 7.842s4.839 3.828 8.015 4.518c2.835-3.001 4.495-6.709 4.738-10.585s-.942-7.719-3.384-10.97zm21.27 11.318c-.011-3.374-1.559-6.607-4.305-8.993s-6.467-3.731-10.351-3.74a16.422 16.422 0 0 0-5.247.849l18.924 16.442c.648-1.453.98-2.999.979-4.557z"/>
    </symbol>
    <symbol id="fosters-peters" viewBox="0 0 57 32">
      <path d="M11.559 9.77h-.002c-1.889 0-3.42 1.361-3.42 3.039v.002c0 1.679 1.531 3.039 3.42 3.039h.002c1.889 0 3.42-1.361 3.42-3.039v-.002c0-1.679-1.531-3.039-3.42-3.039zm25.245-.971c-.005-2.332-1.05-4.566-2.905-6.215S29.53.006 26.906.001c-2.624.004-5.14.932-6.996 2.582S17.009 6.467 17.004 8.8v12.857s19.798-1.96 19.8-12.855V8.8zm-35.6 17.077c.005 1.622.732 3.177 2.022 4.324s3.04 1.794 4.865 1.799c1.825-.005 3.574-.651 4.864-1.798s2.018-2.701 2.023-4.323v-8.946S1.202 18.297 1.202 25.876zm6.888 1.603c-.357 0-.705-.094-1.002-.27s-.528-.426-.664-.719c-.137-.293-.172-.615-.103-.926s.241-.597.494-.821.574-.377.924-.439c.35-.062.713-.03 1.042.091s.611.327.809.59.304.573.304.891c.001.211-.045.42-.135.615s-.223.373-.391.522c-.168.149-.367.268-.586.349s-.454.123-.692.123v-.006zm13.921-.883h-1.329v1.373h-.692v-3.36h2.188v.561h-1.495v.868h1.329v.558zm3.328-.23c0 .331-.058.621-.175.87a1.321 1.321 0 0 1-1.251.78c-.278 0-.527-.067-.745-.201s-.388-.325-.508-.572a1.969 1.969 0 0 1-.182-.859v-.166c0-.331.059-.622.178-.872a1.34 1.34 0 0 1 .505-.579c.218-.135.468-.203.748-.203s.528.068.745.203c.218.134.387.327.505.579.12.251.18.541.18.87v.15zm-.701-.153c0-.352-.063-.62-.189-.803s-.306-.275-.54-.275a.618.618 0 0 0-.538.272c-.126.18-.19.445-.192.794v.164c0 .343.063.609.189.798s.308.284.545.284a.61.61 0 0 0 .535-.272c.125-.183.188-.449.189-.798v-.164zm2.947.875a.352.352 0 0 0-.138-.3c-.092-.071-.258-.145-.498-.221a3.585 3.585 0 0 1-.57-.231c-.381-.206-.572-.484-.572-.833 0-.182.051-.343.152-.485.103-.143.25-.255.441-.335.192-.08.408-.12.646-.12.24 0 .454.044.642.132a1 1 0 0 1 .436.367.955.955 0 0 1 .157.54h-.692a.45.45 0 0 0-.145-.358c-.097-.086-.233-.129-.408-.129-.169 0-.301.036-.395.108a.336.336 0 0 0-.141.282c0 .109.055.201.164.275.111.074.273.143.487.208.394.118.681.265.861.441s.27.394.27.655a.81.81 0 0 1-.33.685c-.22.165-.516.247-.888.247-.258 0-.494-.047-.706-.141a1.128 1.128 0 0 1-.487-.39.999.999 0 0 1-.166-.572h.695c0 .371.221.556.665.556.165 0 .293-.033.385-.099a.331.331 0 0 0 .138-.282zm3.694-1.918h-1.029v2.799h-.692V25.17h-1.015v-.561h2.737v.561zm2.419 1.343h-1.329v.9h1.56v.556h-2.252v-3.36h2.248v.561h-1.555v.801h1.329v.542zm1.88.226h-.552v1.23h-.692v-3.36h1.249c.397 0 .703.088.918.265s.323.427.323.75c0 .229-.05.421-.15.575a1.01 1.01 0 0 1-.45.365l.727 1.373v.032h-.743l-.63-1.23zm-.551-.56h.558c.174 0 .308-.044.404-.132a.48.48 0 0 0 .143-.367.504.504 0 0 0-.136-.374c-.089-.091-.227-.136-.413-.136h-.556v1.008zm4.195.607v1.184h-.692v-3.36h1.311c.252 0 .474.046.665.138.192.092.34.224.443.395.103.169.155.362.155.579 0 .329-.113.589-.339.78-.225.189-.536.284-.935.284h-.607zm0-.561h.618c.183 0 .322-.043.418-.129.097-.086.145-.209.145-.369 0-.165-.048-.298-.145-.399s-.231-.154-.402-.157h-.635v1.055zm4.38.288h-1.329v.9h1.56v.556h-2.252v-3.36h2.248v.561h-1.555v.801h1.329v.542zm3.213-1.343h-1.029v2.799h-.692V25.17h-1.015v-.561h2.737v.561zm2.418 1.343h-1.329v.9h1.56v.556h-2.252v-3.36h2.248v.561h-1.555v.801h1.329v.542zm1.881.226h-.552v1.23h-.692v-3.36h1.248c.397 0 .703.088.918.265s.323.427.323.75c0 .229-.05.421-.15.575a1.015 1.015 0 0 1-.45.365l.727 1.373v.032h-.743l-.63-1.23zm-.552-.56h.558c.174 0 .308-.044.404-.132a.48.48 0 0 0 .143-.367.504.504 0 0 0-.136-.374c-.089-.091-.227-.136-.413-.136h-.556v1.008zm4.069.909a.352.352 0 0 0-.138-.3c-.092-.071-.258-.145-.498-.221a3.585 3.585 0 0 1-.57-.231c-.382-.206-.572-.484-.572-.833 0-.182.051-.343.152-.485.103-.143.25-.255.441-.335.192-.08.408-.12.646-.12.24 0 .454.044.642.132a1 1 0 0 1 .436.367.955.955 0 0 1 .157.54h-.692a.45.45 0 0 0-.145-.358c-.097-.086-.233-.129-.408-.129-.169 0-.301.036-.395.108a.336.336 0 0 0-.141.282c0 .109.055.201.164.275.111.074.273.143.487.208.394.118.681.265.861.441s.27.394.27.655a.81.81 0 0 1-.33.685c-.22.165-.516.247-.888.247-.258 0-.494-.047-.706-.141a1.128 1.128 0 0 1-.487-.39.999.999 0 0 1-.166-.572h.695c0 .371.222.556.665.556.165 0 .293-.033.385-.099a.331.331 0 0 0 .138-.282z"/>
    </symbol>
    <symbol id="brand" viewBox="0 0 57 32">
      <path d="M9.593 26.742c.172.195.263.438.258.688.009.163-.023.326-.092.476s-.175.285-.308.393a1.85 1.85 0 0 1-1.163.317H6.243v-4.361h2.003c.395-.024.788.078 1.11.29.129.099.232.224.299.366s.098.296.089.45a.953.953 0 0 1-.233.667 1.11 1.11 0 0 1-.61.341c.271.045.516.177.691.373zm-2.399-.658h.856a.862.862 0 0 0 .544-.145c.064-.053.114-.119.146-.193s.045-.153.038-.233a.5.5 0 0 0-.181-.426.88.88 0 0 0-.561-.147h-.842v1.144zm1.484 1.672c.069-.055.123-.123.158-.2s.05-.16.045-.243c.005-.084-.011-.168-.047-.246s-.091-.147-.16-.202a.943.943 0 0 0-.582-.158h-.898v1.199h.91a.97.97 0 0 0 .575-.151zm5.009.86-1.114-1.704h-.419v1.704h-.959v-4.361h1.815c.457-.029.91.103 1.263.371.254.237.407.549.431.879s-.08.659-.296.925c-.224.235-.53.391-.865.443l1.187 1.742h-1.042zm-1.533-2.298h.784c.544 0 .817-.22.817-.66.006-.09-.009-.18-.044-.264s-.088-.161-.156-.226a.903.903 0 0 0-.617-.177h-.793l.009 1.327zm6.773 1.421h-1.91l-.337.878h-1.005l1.754-4.312h1.087l1.747 4.312h-1.005l-.33-.878zm-.256-.661-.698-1.84-.698 1.84h1.396zm6.814 1.538h-.952L22.4 25.651v2.965h-.949v-4.361h.949l2.133 2.982v-2.982h.952v4.361zm5.43-1.043a1.988 1.988 0 0 1-.861.769 3.016 3.016 0 0 1-1.338.275h-1.694v-4.361h1.694a3.09 3.09 0 0 1 1.338.268c.364.168.664.433.861.761.196.355.298.746.298 1.144s-.102.789-.298 1.144zm-1.088-.105c.272-.29.421-.659.421-1.041s-.149-.751-.421-1.041a1.753 1.753 0 0 0-1.191-.371h-.661v2.823h.661c.435.025.863-.108 1.191-.371zM19.522.001S31.804 4.247 31.543 10.39v10.391S19.271 16.533 19.526 10.39L19.521.001zm22.963 18.348c2.32-1.462 5.003-2.367 7.803-2.633v-3.253c-3.227 1.139-5.965 3.204-7.803 5.886z"/>
      <path d="M41.092 19.329c1.899-3.5 5.19-6.201 9.197-7.547V2.409S32.798 8.457 33.168 17.205v14.794s.779-.27 2.005-.778c0-.473 0-.95.056-1.429.362-4.062 2.471-7.825 5.863-10.464z"/>
      <path d="M39.428 24.825a14.12 14.12 0 0 1 .612-3.029c-2.112 2.278-3.391 5.106-3.657 8.084-.026.281-.04.562-.047.852.993-.437 2.15-.982 3.364-1.623a14.022 14.022 0 0 1-.272-4.284zm.696.053a13.401 13.401 0 0 0 .216 3.879c4.779-2.618 10.148-6.663 9.941-11.552v-.426c-3.414.35-6.608 1.716-9.092 3.89a13.583 13.583 0 0 0-1.066 4.209z"/>
    </symbol>
    <symbol id="tag-line" viewBox="0 0 57 32">
      <path d="M28.584 15.204a1.773 1.773 0 0 1-.364-1.199v-1.738c0-.533.121-.938.362-1.214s.657-.415 1.245-.414c.553 0 .945.118 1.177.354.253.301.376.668.348 1.039v.408h-.989v-.414a2.118 2.118 0 0 0-.029-.405.39.39 0 0 0-.141-.24.577.577 0 0 0-.358-.094.607.607 0 0 0-.377.099.463.463 0 0 0-.164.265 2.073 2.073 0 0 0-.039.43v2.109c-.016.203.028.407.127.592.049.063.117.112.197.144s.168.043.255.033a.539.539 0 0 0 .35-.095.421.421 0 0 0 .147-.256c.023-.14.033-.281.031-.422v-.428h.989v.391c.028.387-.092.771-.342 1.092-.227.258-.614.387-1.183.387s-.999-.138-1.243-.424zm4.118.017c-.25-.271-.375-.665-.375-1.186v-1.828c0-.516.125-.907.375-1.172s.667-.397 1.253-.396c.581 0 .997.132 1.247.396.25.265.377.656.377 1.172v1.828c0 .516-.127.912-.381 1.184s-.667.408-1.243.408-1.001-.138-1.253-.407zm1.714-.438c.089-.169.13-.355.119-.541v-2.238a1 1 0 0 0-.117-.53c-.05-.064-.12-.114-.202-.146s-.172-.042-.261-.031c-.089-.011-.179 0-.261.031s-.153.082-.203.145a.974.974 0 0 0-.119.53v2.249a1 1 0 0 0 .119.541.615.615 0 0 0 .209.134.702.702 0 0 0 .508 0 .615.615 0 0 0 .209-.134v-.011zm2.352-4.09h1.065l.801 3.372.819-3.372h1.036l.104 4.868h-.766l-.082-3.383-.79 3.383h-.614l-.819-3.395-.076 3.395h-.774l.096-4.868zm5.019 0h1.658c.956 0 1.433.461 1.433 1.382 0 .883-.503 1.323-1.509 1.322h-.565v2.164H41.78l.006-4.868zm1.416 2.08a.803.803 0 0 0 .563-.154.79.79 0 0 0 .147-.55 1.535 1.535 0 0 0-.049-.442c-.015-.048-.04-.094-.075-.134s-.079-.073-.129-.098a1.055 1.055 0 0 0-.457-.078h-.397v1.455h.397zm3.152-2.08h1.099l1.128 4.868h-.954l-.223-1.122h-.981l-.229 1.122h-.968l1.128-4.868zm.939 3.181-.383-2.043-.383 2.043h.766zm2.199-3.181h.717l1.372 2.777v-2.777h.85v4.868h-.682l-1.38-2.899v2.899h-.878l.002-4.868zm4.929 3.011-1.14-3.005h.96l.696 1.93.653-1.93h.94l-1.126 3.005v1.856h-.983v-1.856zm-24.257 3.985v.255h-.835v1.978h-.35v-1.978h-.839v-.255h2.025zm2.619 2.233h-.27a.127.127 0 0 1-.076-.021.122.122 0 0 1-.045-.051l-.242-.53h-1.159l-.242.53a.14.14 0 0 1-.037.06.123.123 0 0 1-.076.021h-.27l1.024-2.232h.356l1.036 2.224zm-1.696-.829h.966l-.41-.909a1.82 1.82 0 0 1-.076-.21l-.039.118-.037.094-.405.907zm3.461.609a1.145 1.145 0 0 0 .356-.027 1.23 1.23 0 0 0 .284-.096v-.502h-.409a.082.082 0 0 1-.056-.018c-.007-.005-.012-.011-.016-.018s-.005-.015-.005-.022v-.171h.794v.856a1.47 1.47 0 0 1-.432.182 1.83 1.83 0 0 1-.256.046c-.099.01-.199.014-.299.014a1.572 1.572 0 0 1-.516-.083 1.26 1.26 0 0 1-.409-.233 1.073 1.073 0 0 1-.264-.354 1.112 1.112 0 0 1-.094-.463 1.165 1.165 0 0 1 .092-.467c.059-.132.149-.253.264-.354.117-.1.256-.179.41-.232.175-.057.361-.085.549-.083.095 0 .191.006.285.019.083.012.165.031.244.057a1.206 1.206 0 0 1 .383.205l-.098.138a.094.094 0 0 1-.08.043.132.132 0 0 1-.063-.018 1.262 1.262 0 0 1-.1-.053.836.836 0 0 0-.137-.06 1.334 1.334 0 0 0-.188-.05 1.51 1.51 0 0 0-.26-.019 1.223 1.223 0 0 0-.395.062.856.856 0 0 0-.301.177.763.763 0 0 0-.19.278 1.048 1.048 0 0 0 0 .744.872.872 0 0 0 .504.458c.13.039.268.054.405.044zm3.263-.035h1.118v.255h-1.46v-2.233h.35l-.008 1.978zm2.281.254h-.35v-2.233h.35v2.233zm1.303-2.222c.021.01.039.024.053.041l1.497 1.683a.534.534 0 0 1 0-.08V17.68h.305v2.242h-.176a.164.164 0 0 1-.076-.012.211.211 0 0 1-.055-.042l-1.495-1.681v1.736h-.293V17.69h.182c.02 0 .039.004.057.011zm4.432-.01v.246h-1.241v.737h1.005v.237h-1.005v.762h1.241v.246h-1.601V17.69h1.601zM9.139 3.901l15.547 3.811v13.355L9.139 17.258V3.902zm-.997-1.138v15.143l17.539 4.301V7.065L8.142 2.763z"/>
      <path d="M17.542 29.237.001 24.933V9.791l17.541 4.303v15.144zM8.433 3.73l15.344 3.763-6.525 5.635L1.906 9.363 8.433 3.73zm-.291-.967L.001 9.791l17.541 4.302 8.139-7.028L8.142 2.763zm10.387 25.622 7.152-6.176-7.152-1.755v7.931z"/>
    </symbol>
  </defs>
</svg>
